<svg width="151" height="31" viewBox="0 0 151 31" fill="none" xmlns="http://www.w3.org/2000/svg">
<path d="M6.12 2.432C6.14133 2.368 6.152 2.31467 6.152 2.272C6.17333 2.208 6.19467 2.15467 6.216 2.112H2.696C2.73867 2.048 2.78133 1.99467 2.824 1.952C2.86667 1.888 2.90933 1.83467 2.952 1.792H6.664C6.83467 1.664 7.016 1.6 7.208 1.6H13.608C13.8427 1.6 14.024 1.664 14.152 1.792H10.44C10.4827 1.83467 10.5253 1.888 10.568 1.952C10.632 1.99467 10.6747 2.048 10.696 2.112H14.184C14.2267 2.24 14.248 2.34667 14.248 2.432H16.04C16.0613 2.432 16.072 2.44267 16.072 2.464V2.752H11.752V3.392H13.544V3.872H13.352V4.512H12.2V5.152H14.792V5.312H14.984V5.952H15.112V6.592H14.888V7.232H14.728V8.032H15.272V8.672H14.664V9.312H14.792V9.472H17.064V10.112H18.248V10.432H13.32V10.752H14.952V11.392H13.608V12.032H14.76V12.352H14.984V12.832H19.272V13.152H22.248V13.792H14.12V13.152H11.144V12.832H6.856V12.352H6.632V12.032H5.48V11.392H6.824V10.752H5.192V10.432H10.12V10.112H8.936V9.472H6.664V9.312H6.536V8.672H7.144V8.032H6.6V7.232H6.76V6.592H6.984V5.952H6.856V5.312H6.664V5.152H4.072V4.512H5.224V3.872H5.416V3.392H3.624V2.752H7.944V2.432H6.12ZM27.4 19.712H18.664V19.872H19.304V20.352H23.848V20.512H22.44V21.152H24.68V21.632H25V21.792H24.776V21.952H24.68V22.592H24.744V23.072H24.616V23.232H24.456C24.4347 23.2747 24.424 23.328 24.424 23.392H24.776C24.712 23.6053 24.5947 23.7653 24.424 23.872H24.072C23.9653 23.9573 23.816 24 23.624 24H7.496C7.304 24 7.15467 23.9573 7.048 23.872H7.368C7.176 23.7653 7.048 23.6053 6.984 23.392H6.632C6.632 23.3493 6.62133 23.3173 6.6 23.296C6.6 23.2747 6.6 23.2533 6.6 23.232H6.76V23.072H6.888V22.592H6.824V21.952H6.92V21.792H7.144V21.632H6.824V21.152H4.584V20.512H5.992V20.352H1.448V19.872H0.808V19.712H9.544V19.232H5.992V18.752H9.448V18.592H1.896V18.112H2.984V17.952H7.144V17.792H5.672V17.312H8.168V16.672H5.64V16.352H7.72V16.192H6.76V15.712H7.688V15.392H6.504V15.072H9.288V14.592H10.088V14.272H5.704V13.792H13.832V14.272H18.216V14.592H17.416V15.072H14.632V15.392H15.816V15.712H14.888V16.192H15.848V16.352H13.768V16.672H16.296V17.312H13.8V17.44H22.664C22.9627 17.44 23.1973 17.5573 23.368 17.792H24.84L24.936 17.952H20.776L20.84 18.112H19.72C19.7413 18.1547 19.752 18.2187 19.752 18.304V18.592H27.304V18.752H23.848V19.232H27.4V19.712ZM42.7593 15.232V15.552H46.8233V15.872H44.3593V16.192H43.2073V16.512H44.1993V16.704C44.1993 16.832 44.1886 16.928 44.1673 16.992H44.6153C44.4659 17.376 44.1886 17.568 43.7833 17.568H34.2473V17.632H35.5273V17.728C35.5273 17.8133 35.5273 17.9093 35.5273 18.016C35.5273 18.1013 35.5379 18.1867 35.5593 18.272H33.8313C33.8313 18.336 33.8313 18.4 33.8313 18.464C33.8526 18.5067 33.8633 18.5493 33.8633 18.592H33.6713C33.6713 18.6773 33.6926 18.784 33.7353 18.912H33.8633C33.9699 19.2107 34.1406 19.424 34.3753 19.552H33.5113C33.6606 19.6373 33.8633 19.68 34.1193 19.68C34.2899 19.68 34.4286 19.6373 34.5353 19.552H36.0393C36.1246 19.5093 36.1993 19.4453 36.2633 19.36C36.3486 19.2747 36.4446 19.1893 36.5513 19.104L36.7433 18.912H36.1353C36.3273 18.7413 36.6153 18.656 36.9993 18.656H43.0473C43.3033 18.656 43.4953 18.7413 43.6233 18.912H44.1993C44.3059 19.0613 44.3593 19.2107 44.3593 19.36C44.3379 19.4027 44.3273 19.4667 44.3273 19.552H42.8233C42.7806 19.7653 42.7166 19.9787 42.6313 20.192H41.0633C40.9993 20.2987 40.9459 20.4053 40.9033 20.512H44.8713C44.8286 20.6187 44.7646 20.7253 44.6793 20.832C44.6153 20.9387 44.5406 21.0453 44.4553 21.152H43.4953C43.4099 21.28 43.3246 21.3867 43.2393 21.472H43.4633C43.4419 21.4933 43.4206 21.5147 43.3993 21.536C43.3779 21.5573 43.3566 21.5893 43.3353 21.632H41.5433L41.3833 21.792H41.9272C41.9059 21.8133 41.8739 21.8347 41.8313 21.856C41.8099 21.8773 41.7886 21.9093 41.7673 21.952H42.7593C42.6099 22.1013 42.4179 22.2613 42.1833 22.432H41.7033C41.6819 22.4533 41.6499 22.4747 41.6073 22.496C41.5646 22.5173 41.5219 22.5493 41.4792 22.592H41.1273C40.7859 22.8267 40.4126 23.04 40.0073 23.232H39.5913C39.3353 23.36 39.0579 23.4773 38.7593 23.584C38.4819 23.6907 38.1833 23.7867 37.8633 23.872H37.3513C37.1166 23.936 36.8713 23.9893 36.6153 24.032C36.3593 24.096 36.0819 24.1493 35.7833 24.192H37.1273C36.8286 24.2347 36.5193 24.2667 36.1993 24.288C35.8793 24.3093 35.5379 24.32 35.1753 24.32C34.8339 24.32 34.4926 24.3093 34.1513 24.288C33.8099 24.2667 33.4793 24.2347 33.1593 24.192H31.8153C31.5379 24.1493 31.2713 24.096 31.0153 24.032C30.7593 23.9893 30.5033 23.936 30.2473 23.872H30.7593C30.1833 23.7227 29.6393 23.5093 29.1273 23.232H29.5433C29.1593 23.0187 28.8286 22.8053 28.5513 22.592H28.9033C28.8606 22.5493 28.8179 22.5173 28.7753 22.496C28.7539 22.4747 28.7219 22.4533 28.6793 22.432H29.1593C29.0739 22.3467 28.9886 22.272 28.9033 22.208C28.8179 22.1227 28.7326 22.0373 28.6473 21.952H27.6233L27.4633 21.792H26.9193C26.8979 21.7493 26.8766 21.7173 26.8553 21.696C26.8339 21.6747 26.8126 21.6533 26.7913 21.632H28.5513C28.5299 21.5893 28.4873 21.536 28.4233 21.472H28.1993C28.1566 21.4293 28.1139 21.376 28.0713 21.312C28.0286 21.248 27.9859 21.1947 27.9433 21.152H28.9033C28.8393 21.0453 28.7753 20.9387 28.7113 20.832C28.6473 20.7253 28.5833 20.6187 28.5193 20.512H24.5192C24.4552 20.4053 24.4019 20.2987 24.3592 20.192H25.9273L25.6393 19.552H26.5033C26.4606 19.4453 26.4179 19.3387 26.3753 19.232C26.3539 19.1253 26.3219 19.0187 26.2793 18.912H26.1833L26.0872 18.592H26.3113L26.2153 18.272H27.9433C27.9219 18.1653 27.9006 18.0587 27.8793 17.952C27.8579 17.8453 27.8366 17.7387 27.8153 17.632H26.5353L26.4713 16.992H26.0233C26.0233 16.9067 26.0126 16.832 25.9913 16.768C25.9913 16.6827 25.9913 16.5973 25.9913 16.512H24.9992V16.192H26.1193V15.872H28.5833V15.552H24.5192V15.488C24.5192 15.3813 24.5299 15.296 24.5512 15.232H30.0873C30.0873 15.1467 30.0873 15.072 30.0873 15.008C30.1086 14.9227 30.1193 14.8373 30.1193 14.752H25.0312C25.0312 14.7093 25.0312 14.6773 25.0312 14.656C25.0526 14.6347 25.0633 14.6133 25.0633 14.592H27.1753C27.1753 14.528 27.1859 14.4747 27.2073 14.432H29.5753V14.272H25.0633C25.0846 14.1653 25.1059 14.0587 25.1273 13.952C25.1486 13.8453 25.1699 13.7387 25.1913 13.632H26.4073C26.4073 13.5467 26.4286 13.44 26.4713 13.312H25.4153C25.4153 13.2693 25.4153 13.2373 25.4153 13.216C25.4366 13.1947 25.4473 13.1733 25.4473 13.152H26.2153C26.2153 13.1093 26.2153 13.0773 26.2153 13.056C26.2366 13.0347 26.2473 13.0133 26.2473 12.992H25.4473L25.5113 12.832H26.2793L26.3753 12.512H26.9833L27.1753 12.032H26.5993C26.6419 11.9253 26.6846 11.8187 26.7273 11.712C26.7699 11.584 26.8233 11.4773 26.8873 11.392H26.7913L26.8553 11.232H26.0553C26.0979 11.1467 26.1193 11.0933 26.1193 11.072H25.3833L25.5753 10.752H27.1432C27.1646 10.7093 27.2073 10.656 27.2713 10.592H27.8473C27.9326 10.4853 28.0073 10.3787 28.0713 10.272C28.1566 10.144 28.2419 10.0373 28.3273 9.952H27.7513C27.8153 9.86667 27.8793 9.792 27.9433 9.728C28.0286 9.64267 28.1139 9.55733 28.1993 9.472H29.4473L29.7673 9.152H27.8793C28.1566 8.91733 28.4339 8.704 28.7113 8.512H30.4713L30.7273 8.352H30.1513C30.3219 8.24533 30.5246 8.13867 30.7593 8.032H32.0073C32.5833 7.75467 33.1806 7.54133 33.7993 7.392H32.0073C32.4766 7.28533 32.9673 7.2 33.4792 7.136C33.9913 7.072 34.5246 7.04 35.0793 7.04C35.6339 7.04 36.1566 7.072 36.6473 7.136C37.1379 7.2 37.6073 7.28533 38.0553 7.392H39.8153C40.1353 7.47733 40.4339 7.57333 40.7113 7.68C41.0099 7.78667 41.2979 7.904 41.5753 8.032H40.3273C40.4339 8.07467 40.5299 8.128 40.6153 8.192C40.7219 8.23467 40.8179 8.288 40.9033 8.352H41.4792C41.5219 8.37333 41.5646 8.39467 41.6073 8.416C41.6499 8.43733 41.6926 8.46933 41.7353 8.512H39.9753C40.2526 8.704 40.5299 8.91733 40.8073 9.152H42.7273L43.0473 9.472H41.7993C41.8846 9.55733 41.9593 9.64267 42.0233 9.728C42.1086 9.792 42.1833 9.86667 42.2473 9.952H42.8233C42.9086 10.0373 42.9833 10.144 43.0473 10.272C43.1326 10.3787 43.2179 10.4853 43.3033 10.592H42.6953C42.7166 10.6347 42.7593 10.688 42.8233 10.752H41.2233L41.4153 11.072H42.1513L42.2473 11.232H43.0793C43.0793 11.2533 43.1006 11.3067 43.1433 11.392H43.2393L43.5273 12.032L43.7193 12.512H43.7513L43.8472 12.832H43.4633L43.5273 12.992H43.8153L43.8793 13.152H44.3913C44.3913 13.1733 44.3913 13.1947 44.3913 13.216C44.4126 13.2373 44.4233 13.2693 44.4233 13.312H44.1673L44.2633 13.632H43.0473L43.1433 14.272H47.6553V14.432H45.2873C45.2873 14.4533 45.2873 14.4747 45.2873 14.496C45.3086 14.5173 45.3193 14.5493 45.3193 14.592H43.1753C43.1966 14.6347 43.2073 14.688 43.2073 14.752H48.2953C48.2953 14.8373 48.2953 14.9227 48.2953 15.008C48.2953 15.072 48.3059 15.1467 48.3273 15.232H42.7593ZM33.0312 13.152V13.312H34.0553V13.568H36.6153V13.312H36.8393V13.152H36.3273V12.992H36.0073C36.0073 12.928 35.9966 12.8747 35.9753 12.832H36.3593C36.3593 12.7467 36.3379 12.64 36.2953 12.512H36.2633C36.2419 12.32 36.1779 12.16 36.0713 12.032C35.8579 11.6907 35.5273 11.52 35.0793 11.52C34.6526 11.52 34.3326 11.6907 34.1193 12.032H34.6953C34.6099 12.16 34.5459 12.32 34.5033 12.512H33.8633C33.8633 12.5547 33.8526 12.608 33.8313 12.672C33.8313 12.7147 33.8206 12.768 33.7993 12.832H33.0312C33.0312 12.896 33.0206 12.9493 32.9993 12.992H33.7993V13.152H33.0312ZM63.1768 22.272V22.592H65.9608V23.136C65.9608 23.1787 65.9501 23.2107 65.9288 23.232H64.4248C64.3821 23.5307 64.2434 23.744 64.0088 23.872H63.7208C63.6141 23.9573 63.4648 24 63.2728 24H57.6728C57.4808 24 57.3314 23.9573 57.2248 23.872H57.4808C57.2674 23.7227 57.1394 23.5093 57.0968 23.232H58.6328V22.592H57.3528C57.2461 22.6987 57.1288 22.8053 57.0008 22.912C56.8941 23.0187 56.7768 23.1253 56.6488 23.232H56.2968C55.9128 23.5093 55.5288 23.7227 55.1448 23.872H54.1208C53.9714 23.936 53.8008 23.9893 53.6088 24.032C53.4381 24.096 53.2568 24.1493 53.0648 24.192H52.8088C52.5954 24.2347 52.3714 24.2667 52.1368 24.288C51.9234 24.3093 51.6994 24.32 51.4648 24.32C51.2088 24.32 50.9528 24.3093 50.6968 24.288C50.4621 24.2667 50.2274 24.2347 49.9928 24.192H50.2488C50.0354 24.1493 49.8221 24.096 49.6088 24.032C49.4168 23.9893 49.2248 23.936 49.0328 23.872H50.0248C49.5554 23.7013 49.1288 23.488 48.7448 23.232H49.0968C48.9474 23.1253 48.8088 23.0187 48.6808 22.912C48.5528 22.8053 48.4248 22.6987 48.2968 22.592H46.6968L46.4088 22.272C46.3874 22.2293 46.3554 22.176 46.3128 22.112C46.2701 22.048 46.2274 21.9947 46.1848 21.952H47.1448C47.1021 21.8667 47.0488 21.792 46.9848 21.728C46.9421 21.6427 46.8994 21.5573 46.8568 21.472H46.5688C46.5688 21.4507 46.5474 21.3973 46.5048 21.312H46.2168L46.1208 21.152H46.1528L45.9608 20.672H45.8008C45.7794 20.5867 45.7581 20.512 45.7368 20.448C45.7154 20.3627 45.6941 20.2773 45.6728 20.192H44.4567C44.3927 19.9573 44.3607 19.744 44.3607 19.552H45.4168V19.232C45.4168 19.1253 45.4168 19.0187 45.4168 18.912C45.4168 18.784 45.4274 18.6773 45.4488 18.592H46.4088C46.4301 18.4853 46.4514 18.3787 46.4728 18.272C46.4941 18.144 46.5154 18.0373 46.5368 17.952H45.6408L45.7048 17.792H45.7368L45.8008 17.632H45.7688C45.8114 17.5467 45.8541 17.472 45.8968 17.408C45.9394 17.3227 45.9714 17.2373 45.9928 17.152H44.1047L44.2967 16.832H43.5927C43.6567 16.768 43.6994 16.7147 43.7207 16.672H44.8727C44.9154 16.6293 44.9581 16.576 45.0008 16.512C45.0434 16.448 45.0861 16.3947 45.1288 16.352H45.1928C45.4061 16.096 45.6301 15.8827 45.8648 15.712H43.2407C43.3901 15.6053 43.5501 15.4987 43.7207 15.392C43.8701 15.264 44.0301 15.1573 44.2007 15.072H45.9608L46.2488 14.912H47.1448C47.1874 14.8693 47.2408 14.8373 47.3048 14.816C47.3688 14.7947 47.4221 14.7733 47.4648 14.752H47.8488C48.2328 14.56 48.6488 14.4 49.0968 14.272H51.0488C51.3474 14.1653 51.6461 14.08 51.9448 14.016C52.2648 13.9307 52.5954 13.856 52.9368 13.792H52.1368L52.6488 13.696L56.0408 13.152V12.992H57.6728V12.832H54.6008V12.672H56.4248C56.4248 12.5653 56.4248 12.48 56.4248 12.416C56.4248 12.3307 56.4141 12.256 56.3928 12.192C56.3714 12 56.2968 11.84 56.1688 11.712H55.6248C55.6034 11.6907 55.5501 11.6587 55.4648 11.616L55.2408 11.712H54.6968C54.6114 11.776 54.5261 11.8507 54.4408 11.936C54.3554 12 54.2594 12.0853 54.1528 12.192H54.1848C53.9501 12.4267 53.6514 12.544 53.2888 12.544H47.8488C47.5288 12.544 47.3154 12.4267 47.2088 12.192H47.1768C47.1128 12.0853 47.0914 11.968 47.1128 11.84V11.712H47.6248C47.6461 11.6693 47.6568 11.616 47.6568 11.552H45.6088C45.6088 11.4667 45.6301 11.36 45.6728 11.232H50.2808C50.2808 11.2107 50.3021 11.1573 50.3448 11.072H47.4968C47.5608 10.8587 47.6568 10.6453 47.7848 10.432H48.3288C48.3928 10.3253 48.4674 10.2187 48.5528 10.112C48.6381 10.0053 48.7234 9.89867 48.8088 9.792H46.4088L46.6968 9.472H51.3368C51.4221 9.38667 51.5074 9.312 51.5928 9.248C51.6994 9.16267 51.7954 9.07733 51.8808 8.992H48.9368L49.1288 8.832H48.2328C48.3394 8.74667 48.4568 8.672 48.5848 8.608C48.7128 8.52267 48.8408 8.43733 48.9688 8.352H50.4728C50.9208 8.096 51.3901 7.88267 51.8808 7.712H52.1048C52.6808 7.49867 53.3208 7.33867 54.0248 7.232C54.7501 7.104 55.5394 7.04 56.3928 7.04C58.1421 7.04 59.6248 7.264 60.8408 7.712H60.5848C60.8194 7.79733 61.0434 7.89333 61.2568 8C61.4914 8.10667 61.7154 8.224 61.9288 8.352H60.4248L61.0968 8.832H61.9928L62.1848 8.992H65.1288L65.6088 9.472H60.9688C61.0114 9.51467 61.0541 9.568 61.0968 9.632C61.1394 9.696 61.1821 9.74933 61.2248 9.792H63.5928C63.6781 9.87733 63.7528 9.984 63.8168 10.112C63.9021 10.2187 63.9661 10.3253 64.0088 10.432H63.4968L63.7847 11.072H66.6328C66.6754 11.1573 66.6968 11.2107 66.6968 11.232H62.0888C62.1314 11.2747 62.1528 11.328 62.1528 11.392C62.1741 11.456 62.1954 11.5093 62.2168 11.552H63.2728C63.2728 11.5733 63.2728 11.5947 63.2728 11.616C63.2941 11.6373 63.3048 11.6693 63.3048 11.712H63.8488L64.0408 12.672H62.1848C62.1848 12.6933 62.1848 12.7147 62.1848 12.736C62.2061 12.7573 62.2168 12.7893 62.2168 12.832H65.2888V12.992H63.6888V13.152C63.7101 13.2587 63.7208 13.3653 63.7208 13.472C63.7208 13.5787 63.7208 13.6853 63.7208 13.792H64.5528V14.272H62.5688V14.752H62.2168V14.912H61.3528V15.072H59.5928V15.712H62.2168V16.352H62.1528V16.672H61.0008V16.832H61.7048V17.152H63.8168V17.632H63.4328V17.952H63.6888V18.592H63.4968V19.552H62.4408V20.192H63.6568V20.672H63.8168V21.312H64.1048V21.472H64.3608V21.952H63.3688V22.272H63.1768ZM53.8968 11.52C53.7474 11.52 53.6408 11.5307 53.5768 11.552H54.2488C54.1848 11.5307 54.0674 11.52 53.8968 11.52ZM54.1208 17.088L53.8328 17.152H54.1208V17.088ZM53.0328 17.952H53.9288C53.6941 18.1227 53.5768 18.336 53.5768 18.592H52.6168V18.688C52.6168 18.9013 52.6914 19.0827 52.8408 19.232C52.9474 19.3813 53.1608 19.488 53.4808 19.552H54.2488C54.5688 19.488 54.8461 19.3813 55.0808 19.232C55.2728 19.0613 55.4541 18.848 55.6248 18.592H55.7848C55.8274 18.4853 55.8701 18.3893 55.9128 18.304C55.9554 18.1973 55.9874 18.08 56.0088 17.952H55.7528C55.7528 17.9093 55.7528 17.8773 55.7528 17.856C55.7741 17.8347 55.7848 17.8133 55.7848 17.792H55.8168V17.632H56.2008C56.2221 17.5467 56.2328 17.472 56.2328 17.408C56.2328 17.3227 56.2328 17.2373 56.2328 17.152H55.6888L54.1208 17.504C54.0354 17.5253 53.9501 17.5467 53.8648 17.568C53.8008 17.5893 53.7368 17.6107 53.6728 17.632C53.6088 17.6533 53.5448 17.6747 53.4808 17.696C53.4168 17.7173 53.3634 17.7493 53.3208 17.792H53.2888C53.2461 17.8133 53.2034 17.8347 53.1608 17.856C53.1181 17.8773 53.0754 17.9093 53.0328 17.952ZM53.1927 19.552H52.3928C52.4781 19.5733 52.6061 19.584 52.7768 19.584C52.8408 19.584 52.9048 19.584 52.9688 19.584C53.0541 19.584 53.1288 19.5733 53.1927 19.552ZM80.683 9.792H81.899V10.432H81.835V11.072H80.715V11.552H81.003V12.192H80.747V12.832H80.171V12.992H78.155V13.216C78.155 13.2587 78.1443 13.3013 78.123 13.344C78.123 13.3867 78.1123 13.4293 78.091 13.472H78.827C78.7203 13.8773 78.443 14.08 77.995 14.08H73.867C73.7817 14.08 73.6963 14.08 73.611 14.08C73.547 14.08 73.483 14.0907 73.419 14.112H74.699C74.5923 14.1333 74.4963 14.1547 74.411 14.176C74.3257 14.1973 74.2297 14.2293 74.123 14.272H75.179C75.115 14.2933 75.019 14.3467 74.891 14.432H75.499L75.307 14.592H75.467C75.339 14.72 75.243 14.88 75.179 15.072H74.219C74.1763 15.1573 74.155 15.2107 74.155 15.232H73.835C73.835 15.2533 73.8243 15.2747 73.803 15.296C73.803 15.3173 73.803 15.3493 73.803 15.392H74.187C74.1657 15.4347 74.155 15.488 74.155 15.552C74.155 15.5947 74.1443 15.648 74.123 15.712H74.315V16.192H73.867V16.512H74.315V16.992H74.795V17.632H74.091V17.792H73.579V17.952H75.499V18.432H74.539V18.752H74.859V19.072H74.123V19.712H73.707V19.872H73.291V20.352H74.379V20.832H73.803V21.312H74.379V21.472H74.315V21.792H73.611V22.112H74.123V22.752H74.251V23.232H74.123C74.0803 23.5307 73.9417 23.744 73.707 23.872H73.419C73.3123 23.9573 73.163 24 72.971 24H66.891C66.699 24 66.5497 23.9573 66.443 23.872H66.731C66.4963 23.744 66.3577 23.5307 66.315 23.232H66.443V22.752H66.315V22.112H65.803V21.792H66.507V21.472H66.571V21.312H65.995V20.832H66.571V20.352H65.483V19.872H65.899V19.712H66.315V19.072H67.051V18.752H66.731V18.432H67.691V17.952H65.771V17.792H66.283V17.632H66.987V16.992H66.507V16.512H66.059V16.192H66.507V15.712H66.315V15.392H65.931V15.232H66.251V15.072H67.211V14.592H67.051V14.432H66.475V14.272H65.419V14.112H64.139V13.472H63.435V12.992H65.451V12.832H66.027V12.192H66.283V11.552H65.995V11.072H67.115V10.432H67.179V9.792H65.963V9.312H66.987V8.672H65.995V8.512H66.315V8.224C66.315 8.11733 66.3363 8 66.379 7.872H66.347C66.4963 7.53067 66.763 7.36 67.147 7.36H72.747C73.1097 7.36 73.3657 7.53067 73.515 7.872H73.579C73.6217 8 73.643 8.11733 73.643 8.224V8.512H73.323V8.672H74.315V8.768L74.443 8.672H74.507C74.5497 8.62933 74.5923 8.59733 74.635 8.576C74.6777 8.55467 74.7097 8.53333 74.731 8.512H74.795C75.2217 8.23467 75.6377 8.02133 76.043 7.872H76.107C76.5337 7.70133 76.9603 7.57333 77.387 7.488C77.8137 7.40267 78.2617 7.36 78.731 7.36H80.267C80.651 7.36 80.9177 7.53067 81.067 7.872H81.003C81.0457 8 81.067 8.11733 81.067 8.224V8.512H81.035V8.672H80.971V9.312H80.683V9.792ZM101.598 21.632H106.366V22.272H103.646V22.752H103.198V23.072H101.214V23.232H102.206C102.163 23.5307 102.035 23.744 101.822 23.872H101.118C101.011 23.9573 100.851 24 100.638 24H94.5255C94.3335 24 94.1842 23.9573 94.0775 23.872H94.7815C94.5682 23.744 94.4402 23.5307 94.3975 23.232H93.3735V23.072H95.3575V22.752H95.8055V22.272H98.5255V21.632H93.7575V20.992H94.9415V20.832H93.8855V20.512H93.9175V20.192H93.4055V19.552H93.8215V18.912H92.5095V18.272H92.8295V17.632H94.3015V16.992H93.9495V16.672H93.8215V16.512H93.6935V16.032H93.8855V15.872H94.0455V15.552H94.0135V15.232H93.9175V14.912H92.5735V14.592H92.9255V14.528C92.9255 14.4427 92.9148 14.368 92.8935 14.304C92.8935 14.24 92.8935 14.176 92.8935 14.112H93.5335C93.5122 14.0053 93.4908 13.92 93.4695 13.856C93.4482 13.7707 93.4268 13.696 93.4055 13.632H93.9815C93.8535 13.3547 93.6722 13.1413 93.4375 12.992H92.4135C92.1788 12.8427 91.8695 12.768 91.4855 12.768C91.1015 12.768 90.8028 12.8427 90.5895 12.992H91.3575C91.2508 13.0773 91.1442 13.1733 91.0375 13.28C90.9522 13.3653 90.8882 13.4827 90.8455 13.632H89.8855C89.8428 13.7173 89.8002 13.8773 89.7575 14.112H89.9175C89.8962 14.1973 89.8855 14.336 89.8855 14.528V14.592H89.6615V14.912H90.7175V15.232H90.7815V15.552H90.6855V15.872H90.4615V16.032H90.2375V16.512H90.5895V16.672H90.8135V16.992H90.6855V17.632H91.5175V18.272H90.6215V18.912H90.7815V19.552H90.4295V20.192H90.8135V20.512H90.7815V20.672H90.8775V20.832H92.6375V20.992H93.3735V21.632H91.3895V22.272H91.4535V22.752H90.2375V23.072H91.6135V23.232H91.9655C91.9228 23.5307 91.7842 23.744 91.5495 23.872H90.0775C89.9708 23.9573 89.8215 24 89.6295 24H83.5495C83.3575 24 83.2082 23.9573 83.1015 23.872H84.5735C84.3388 23.744 84.2002 23.5307 84.1575 23.232H83.8055V23.072H82.4295V22.752H83.6455V22.272H83.5815V21.632H85.5655V20.992H84.8295V20.832H83.0695V20.672H82.9735V20.512H83.0055V20.192H82.6215V19.552H82.9735V18.912H82.8135V18.272H83.7095V17.632H82.8775V16.992H83.0055V16.672H82.7815V16.512H82.4295V16.032H82.6535V15.872H82.8775V15.552H82.9735V15.232H82.9095V14.912H81.8535V14.592H82.0775V14.112H81.9175V13.632H82.8775V12.992H82.0775V12.512H82.7815V12.192H82.9735V11.712H82.8455V11.232H82.8775V10.432H83.0375V10.112H83.0055V9.632H83.4215V9.472H83.1655V8.992H83.5495V8.832H82.2695V8.512H83.1975V8.032H84.9255C84.9682 7.904 85.0108 7.79733 85.0535 7.712H84.0295C84.2002 7.47733 84.4348 7.36 84.7335 7.36H90.3335C90.6322 7.36 90.8668 7.47733 91.0375 7.712H91.5815C92.0508 7.49867 92.5522 7.33867 93.0855 7.232C93.6188 7.104 94.1735 7.04 94.7495 7.04C95.8162 7.04 96.7762 7.264 97.6295 7.712H97.9815C98.0882 7.75467 98.1842 7.808 98.2695 7.872C98.3548 7.91467 98.4402 7.968 98.5255 8.032H98.0775C98.1842 8.096 98.2908 8.17067 98.3975 8.256C98.5042 8.32 98.6002 8.40533 98.6855 8.512H101.182C101.31 8.59733 101.416 8.704 101.502 8.832H99.7415C99.7628 8.85333 99.7842 8.87467 99.8055 8.896C99.8268 8.91733 99.8482 8.94933 99.8695 8.992H100.318C100.382 9.07733 100.446 9.16267 100.51 9.248C100.574 9.312 100.627 9.38667 100.67 9.472H100.958L101.054 9.632H100.638L100.926 10.112H100.958C101 10.2187 101.054 10.3253 101.118 10.432H100.958C101.064 10.6667 101.15 10.88 101.214 11.072C101.214 11.0933 101.235 11.1467 101.278 11.232H101.246C101.288 11.3173 101.31 11.4027 101.31 11.488C101.331 11.552 101.352 11.6267 101.374 11.712H101.502C101.544 11.7973 101.566 11.8827 101.566 11.968C101.587 12.032 101.608 12.1067 101.63 12.192H101.406C101.448 12.32 101.47 12.4267 101.47 12.512H100.798C100.819 12.5973 100.83 12.6827 100.83 12.768C100.83 12.832 100.84 12.9067 100.862 12.992H101.886C101.907 13.0773 101.918 13.184 101.918 13.312C101.939 13.4187 101.95 13.5253 101.95 13.632H101.374V14.112H100.766V14.592H100.414V14.912H101.758V15.232H101.854V15.552H101.886V15.872H101.726V16.032H101.534V16.512H101.662V16.672H101.79V16.992H102.142V17.632H100.67V18.272H100.35V18.912H101.662V19.552H101.246V20.192H101.758V20.512H101.726V20.832H102.782V20.992H101.598V21.632ZM90.8455 8.032H90.4935C90.4935 8.05333 90.4935 8.08533 90.4935 8.128C90.5148 8.14933 90.5255 8.18133 90.5255 8.224V8.256C90.5682 8.21333 90.6215 8.17067 90.6855 8.128C90.7495 8.08533 90.8028 8.05333 90.8455 8.032ZM89.5975 8.512V8.832H92.2535L92.6375 8.512H89.5975ZM90.4935 8.992V9.28C90.5362 9.216 90.6215 9.12 90.7495 8.992H90.4935ZM104.28 4.672V4.032H104.248V3.552H104.536V3.392H104.728V2.752H104.568V2.272H104.6V1.632H104.728V1.152H104.664V0.863998C104.664 0.693333 104.685 0.576 104.728 0.511999H105.048L105.144 0.351999H104.888C105.059 0.117332 105.293 -1.90735e-06 105.592 -1.90735e-06H111C111.299 -1.90735e-06 111.533 0.117332 111.704 0.351999H111.96L112.056 0.511999H111.704C111.768 0.597333 111.8 0.714666 111.8 0.863998V1.152H111.864V1.632H111.736V2.272H111.704V2.752H111.864V3.392H111.672V3.552H111.384V4.032H111.416V4.672H111.64V4.736C111.64 4.928 111.565 5.12 111.416 5.312H111.032C110.883 5.504 110.669 5.6 110.392 5.6H104.984C104.707 5.6 104.483 5.504 104.312 5.312H104.696C104.568 5.14133 104.504 4.94933 104.504 4.736V4.672H104.28ZM110.872 11.392H113.88V12.032H112.792V12.352H111.576V12.992H112.504V13.152H111.896V13.472H111.992V13.792H112.152V14.272H110.552V14.752H111.608V15.232H111.416V15.552H111.96V16.032H112.088V16.512H111.896V16.992H112.056V17.312H111.896V17.952H111.832V18.432H111.704V18.912H111.832V19.232H111.896V19.872H111.768V20.192H111.928V20.512H111.896V20.992H112.024V21.472H112.12V21.632H111.896V22.272H111.448V22.912H111.768V23.136C111.768 23.2427 111.757 23.328 111.736 23.392H111.512C111.448 23.6053 111.331 23.7653 111.16 23.872H111.8C111.693 23.9573 111.533 24 111.32 24H105.592C105.4 24 105.251 23.9573 105.144 23.872H104.504C104.312 23.7653 104.184 23.6053 104.12 23.392H104.344C104.323 23.328 104.312 23.2427 104.312 23.136V22.912H103.992V22.272H104.44V21.632H104.664V21.472H104.568V20.992H104.44V20.512H104.472V20.192H104.312V19.872H104.44V19.232H104.376V18.912H104.248V18.432H104.376V17.952H104.44V17.312H104.6V16.992H104.44V16.512H104.632V16.032H104.504V15.552H103.96V15.232H104.152V14.752H103.096V14.272H104.696V13.792H104.536V13.472H104.44V13.152H105.048V12.992H104.12V12.352H105.336V12.032H106.424V11.392H103.416V11.072H106.072V10.432H105.112V9.952H105.688V9.312H104.664V9.152H104.44V8.832H104.248V8.352H104.472V8.224C104.472 7.98933 104.525 7.81867 104.632 7.712H104.664C104.835 7.47733 105.069 7.36 105.368 7.36H111.096C111.395 7.36 111.629 7.47733 111.8 7.712H111.736C111.864 7.84 111.928 8.01067 111.928 8.224V8.352H111.704V8.832H111.896V9.152H112.12V9.312H113.144V9.952H112.568V10.432H113.528V11.072H110.872V11.392ZM128.224 9.152V9.632H129.6V9.952H128.16V10.272H128.768V10.912H128.864V11.552H129.472V11.872H128.608V12.096C128.608 12.2027 128.597 12.288 128.576 12.352H128.416C128.33 12.5867 128.202 12.7467 128.032 12.832H128.32C128.213 12.9173 128.064 12.96 127.872 12.96H124.224V13.312H124.096V13.952H123.872V14.272H124.288V14.592H124.224V14.912H123.648V15.552H125.76V16.192H128.16V16.832H125.632V17.152H128.896V17.632H124.544V17.792H123.552V18.432H125.12V18.752H125.728V18.912H126.048V19.552H124.736V20.032H126.144V20.672H126.208V21.312H124.864V21.792H124.736V21.952H124.224V22.592H123.104V23.232H123.904C123.861 23.5307 123.733 23.744 123.52 23.872H123.808C123.701 23.9573 123.552 24 123.36 24H117.76C117.568 24 117.418 23.9573 117.312 23.872H116.992C116.778 23.744 116.65 23.5307 116.608 23.232H115.776V22.592H116.896V21.952H117.408V21.792H117.536V21.312H118.88V20.672H118.816V20.032H117.408V19.552H118.72V18.912H118.4V18.752H117.792V18.432H116.224V17.792H117.216V17.632H121.568V17.152H118.304V16.832H120.832V16.192H118.432V15.552H116.32V14.912H116.896V14.592H116.96V14.272H116.544V13.952H116.768V13.312H116.896V12.96H114.688C114.496 12.96 114.346 12.9173 114.24 12.832H113.952C113.781 12.7467 113.653 12.5867 113.568 12.352H113.76C113.738 12.3093 113.717 12.2667 113.696 12.224C113.696 12.1813 113.696 12.1387 113.696 12.096V11.872H114.56V11.552H113.952V10.912H113.856V10.272H113.248V9.952H114.688V9.632H113.312V9.152H113.856V8.832H113.824V8.352H114.08V8.224C114.08 8.07467 114.112 7.95733 114.176 7.872H115.744C115.893 7.53067 116.149 7.36 116.512 7.36H118.72V7.232H119.232V6.592H115.744V6.272H117.312C117.333 6.22933 117.344 6.176 117.344 6.112H117.056C117.056 6.02667 117.056 5.952 117.056 5.888C117.077 5.80267 117.098 5.71733 117.12 5.632H116.864C116.885 5.52533 116.906 5.41866 116.928 5.312C116.949 5.184 116.97 5.07733 116.992 4.992H116.928C116.928 4.94933 116.928 4.91733 116.928 4.896C116.949 4.87467 116.96 4.85333 116.96 4.832H117.184C117.184 4.78933 117.184 4.75733 117.184 4.736C117.205 4.71467 117.216 4.69333 117.216 4.672H117.152C117.173 4.58667 117.194 4.512 117.216 4.448C117.237 4.36267 117.258 4.27733 117.28 4.192H117.312C117.354 4.08533 117.397 3.97867 117.44 3.872C117.482 3.744 117.536 3.63733 117.6 3.552H117.728C117.77 3.44533 117.824 3.33867 117.888 3.232H117.248C117.376 3.01867 117.525 2.80533 117.696 2.592H117.28L117.76 2.112H118.4C118.506 2.02667 118.602 1.952 118.688 1.888C118.794 1.80267 118.901 1.71733 119.008 1.632H118.816C119.114 1.41866 119.413 1.25867 119.712 1.152H119.68C119.744 1.10933 119.808 1.07733 119.872 1.056C119.936 1.03467 120 1.01333 120.064 0.991999H119.552C120.234 0.735999 120.97 0.565333 121.76 0.48C122.549 0.373333 123.37 0.32 124.224 0.32H127.2C127.669 0.32 127.957 0.543999 128.064 0.991999H128.544C128.565 1.03467 128.576 1.088 128.576 1.152H128.608V1.632H128.8V2.112H128.16V2.592H128.576V3.232H129.216V3.552H129.088V4.192H129.056V4.672H129.12V4.832H128.928V4.992H128.96V5.056C128.96 5.29067 128.885 5.48267 128.736 5.632H128.992C128.842 5.824 128.618 5.92 128.32 5.92H125.728C125.322 5.92 125.024 5.984 124.832 6.112H125.088C125.045 6.13333 124.981 6.18667 124.896 6.272H123.328C123.221 6.37867 123.157 6.48533 123.136 6.592H126.624C126.602 6.656 126.581 6.72 126.56 6.784C126.56 6.848 126.56 6.912 126.56 6.976V7.232H126.048V7.36H129.696C130.08 7.36 130.346 7.53067 130.496 7.872H128.928C128.97 8 128.992 8.11733 128.992 8.224V8.352H128.736V8.832H128.768V9.152H128.224ZM149.926 8.672H147.334L147.27 8.832H149.958L149.67 9.472H148.422L148.166 10.112H148.838L148.582 10.752H147.526L147.398 11.072H148.198L148.07 11.392H147.878L147.814 11.552H147.782L147.558 12.032H147.878L147.686 12.512H145.414L145.254 12.832H147.014L146.95 12.992H144.07L143.942 13.312H143.686L143.398 13.952H147.622L147.558 14.112H146.822L146.662 14.432H146.886L146.822 14.592H146.63L146.342 15.232L146.15 15.712H145.766L145.542 16.192H145.798L145.574 16.672H145.67L145.606 16.832H145.574L145.446 17.152H145.606L145.478 17.472H145.318L145.19 17.792H145.158L144.966 18.272H145.158L145.094 18.432H144.902L144.678 18.912H143.494L143.206 19.552H143.974L143.846 19.872H144.774L144.518 20.512H143.462L143.334 20.832H143.846L143.59 21.472H143.43L143.142 22.112H143.366L143.238 22.432H143.174L143.014 22.752H142.95L142.726 23.232H142.822L142.598 23.712H142.342L142.118 24.192H141.67L141.51 24.512H143.846L143.59 25.152H141.222L140.934 25.792H142.246L141.958 26.432H143.27L142.982 27.072H143.046L142.79 27.712H138.758L138.598 28.032H139.526L139.398 28.352H140.806L140.646 28.672H137.446L137.286 28.992H138.95L138.822 29.312C138.715 29.5893 138.534 29.8027 138.278 29.952H136.934C136.763 30.0373 136.582 30.08 136.39 30.08H131.142C130.95 30.08 130.811 30.0373 130.726 29.952H132.038C131.846 29.8027 131.75 29.6213 131.75 29.408V29.312C131.75 29.2267 131.76 29.152 131.782 29.088L131.814 28.992H130.15L130.31 28.672H133.51L133.638 28.352H132.23L132.358 28.032H131.462L131.59 27.712H135.622L135.91 27.072H135.846L136.102 26.432H134.79L135.046 25.792H133.766L134.022 25.152H136.39L136.646 24.512H134.31L134.438 24.192H134.918L135.11 23.712H135.398L135.59 23.232H135.526L135.654 22.944L135.558 22.752H135.622L135.494 22.432H135.59L135.43 22.112H135.206L134.95 21.472H135.11L134.822 20.832H134.31L134.15 20.512H135.206L134.95 19.872H133.99L133.862 19.552H133.094L132.838 18.912H134.022L133.83 18.432H134.022L133.958 18.272H133.734L133.542 17.792H133.574L133.446 17.472H133.574L133.446 17.152H133.254L133.126 16.832H133.158L133.094 16.672H132.998L132.806 16.192H132.582L132.358 15.712H132.742L132.55 15.232H132.102L131.846 14.592H132.198L132.102 14.432H132.614L132.454 14.112H131.654L131.558 13.952H131.526L131.238 13.312H127.238L127.078 12.992H129.478L129.414 12.832H129.542L129.382 12.512H130.982L130.758 12.032H131.046L130.854 11.552H130.918L130.854 11.392H130.822L130.694 11.072H130.598L130.438 10.752H130.758L130.502 10.112H129.638L129.35 9.472H130.022L129.766 8.832H128.038L127.974 8.672H130.502L130.374 8.352C130.352 8.288 130.342 8.21333 130.342 8.128C130.342 8.08533 130.352 8.05333 130.374 8.032H130.822C130.928 7.584 131.184 7.36 131.59 7.36H136.998C137.296 7.36 137.52 7.43467 137.67 7.584C137.819 7.712 137.926 7.86133 137.99 8.032H137.542C137.542 8.05333 137.542 8.07467 137.542 8.096C137.563 8.096 137.574 8.10667 137.574 8.128L137.67 8.352L137.766 8.672H135.206L135.27 8.832H136.998L137.254 9.472H136.582L136.806 10.112H137.67L137.894 10.752H137.574L137.702 11.072H137.798L137.99 11.552H137.926L138.086 12.032H137.83L137.99 12.512H136.422L136.518 12.832H136.39L136.454 12.992H134.086L134.182 13.312H136.998L137.126 12.992H140.006L140.07 12.832H138.31L138.438 12.512H140.678L140.87 12.032H140.55L140.742 11.552H140.774L140.838 11.392H141.03L141.126 11.072H140.326L140.454 10.752H141.478L141.734 10.112H141.03L141.286 9.472H142.534L142.758 8.832H140.07L140.134 8.672H142.726L142.854 8.352L142.918 8.128C142.939 8.10667 142.95 8.07467 142.95 8.032H141.894C142 7.86133 142.128 7.712 142.278 7.584C142.448 7.43467 142.672 7.36 142.95 7.36H148.294C148.486 7.36 148.656 7.43467 148.806 7.584C148.955 7.712 149.03 7.86133 149.03 8.032H150.086C150.086 8.16 150.075 8.26667 150.054 8.352L149.926 8.672ZM140.678 14.112L140.71 13.952H138.502L138.566 14.112H139.366L139.494 14.432H139.014L139.078 14.592H138.726L138.95 15.232H139.398L139.462 15.424L139.526 15.232L139.75 14.592H139.974L140.038 14.432H139.814L139.91 14.112H140.678Z" fill="#134D58"/>
</svg>
